<?xml version="1.0" encoding="utf-8" standalone="no"?>
<!DOCTYPE svg PUBLIC "-//W3C//DTD SVG 1.1//EN"
  "http://www.w3.org/Graphics/SVG/1.1/DTD/svg11.dtd">
<svg xmlns:xlink="http://www.w3.org/1999/xlink" width="1080pt" height="432pt" viewBox="0 0 1080 432" xmlns="http://www.w3.org/2000/svg" version="1.1">
 <metadata>
  <rdf:RDF xmlns:dc="http://purl.org/dc/elements/1.1/" xmlns:cc="http://creativecommons.org/ns#" xmlns:rdf="http://www.w3.org/1999/02/22-rdf-syntax-ns#">
   <cc:Work>
    <dc:type rdf:resource="http://purl.org/dc/dcmitype/StillImage"/>
    <dc:date>2024-09-29T11:18:46.817135</dc:date>
    <dc:format>image/svg+xml</dc:format>
    <dc:creator>
     <cc:Agent>
      <dc:title>Matplotlib v3.9.1, https://matplotlib.org/</dc:title>
     </cc:Agent>
    </dc:creator>
   </cc:Work>
  </rdf:RDF>
 </metadata>
 <defs>
  <style type="text/css">*{stroke-linejoin: round; stroke-linecap: butt}</style>
 </defs>
 <g id="figure_1">
  <g id="patch_1">
   <path d="M 0 432 
L 1080 432 
L 1080 0 
L 0 0 
z
" style="fill: #ffffff"/>
  </g>
  <g id="axes_1">
   <g id="patch_2">
    <path d="M 52.04 386.264 
L 1069.2 386.264 
L 1069.2 14.76 
L 52.04 14.76 
z
" style="fill: #ffffff"/>
   </g>
   <g id="matplotlib.axis_1">
    <g id="xtick_1">
     <g id="line2d_1">
      <path d="M 123.758153 386.264 
L 123.758153 14.76 
" clip-path="url(#p6264f51e5f)" style="fill: none; stroke: #ebebeb; stroke-width: 0.25; stroke-linecap: square"/>
     </g>
     <g id="line2d_2">
      <defs>
       <path id="mcbfacdb83f" d="M 0 0 
L 0 3.5 
" style="stroke: #000000; stroke-width: 0.8"/>
      </defs>
      <g>
       <use xlink:href="#mcbfacdb83f" x="123.758153" y="386.264" style="stroke: #000000; stroke-width: 0.8"/>
      </g>
     </g>
     <g id="text_1">
      <!-- anaphor -->
      <g transform="translate(98.852528 402.382125) scale(0.12 -0.12)">
       <defs>
        <path id="DejaVuSans-61" d="M 2194 1759 
Q 1497 1759 1228 1600 
Q 959 1441 959 1056 
Q 959 750 1161 570 
Q 1363 391 1709 391 
Q 2188 391 2477 730 
Q 2766 1069 2766 1631 
L 2766 1759 
L 2194 1759 
z
M 3341 1997 
L 3341 0 
L 2766 0 
L 2766 531 
Q 2569 213 2275 61 
Q 1981 -91 1556 -91 
Q 1019 -91 701 211 
Q 384 513 384 1019 
Q 384 1609 779 1909 
Q 1175 2209 1959 2209 
L 2766 2209 
L 2766 2266 
Q 2766 2663 2505 2880 
Q 2244 3097 1772 3097 
Q 1472 3097 1187 3025 
Q 903 2953 641 2809 
L 641 3341 
Q 956 3463 1253 3523 
Q 1550 3584 1831 3584 
Q 2591 3584 2966 3190 
Q 3341 2797 3341 1997 
z
" transform="scale(0.015625)"/>
        <path id="DejaVuSans-6e" d="M 3513 2113 
L 3513 0 
L 2938 0 
L 2938 2094 
Q 2938 2591 2744 2837 
Q 2550 3084 2163 3084 
Q 1697 3084 1428 2787 
Q 1159 2491 1159 1978 
L 1159 0 
L 581 0 
L 581 3500 
L 1159 3500 
L 1159 2956 
Q 1366 3272 1645 3428 
Q 1925 3584 2291 3584 
Q 2894 3584 3203 3211 
Q 3513 2838 3513 2113 
z
" transform="scale(0.015625)"/>
        <path id="DejaVuSans-70" d="M 1159 525 
L 1159 -1331 
L 581 -1331 
L 581 3500 
L 1159 3500 
L 1159 2969 
Q 1341 3281 1617 3432 
Q 1894 3584 2278 3584 
Q 2916 3584 3314 3078 
Q 3713 2572 3713 1747 
Q 3713 922 3314 415 
Q 2916 -91 2278 -91 
Q 1894 -91 1617 61 
Q 1341 213 1159 525 
z
M 3116 1747 
Q 3116 2381 2855 2742 
Q 2594 3103 2138 3103 
Q 1681 3103 1420 2742 
Q 1159 2381 1159 1747 
Q 1159 1113 1420 752 
Q 1681 391 2138 391 
Q 2594 391 2855 752 
Q 3116 1113 3116 1747 
z
" transform="scale(0.015625)"/>
        <path id="DejaVuSans-68" d="M 3513 2113 
L 3513 0 
L 2938 0 
L 2938 2094 
Q 2938 2591 2744 2837 
Q 2550 3084 2163 3084 
Q 1697 3084 1428 2787 
Q 1159 2491 1159 1978 
L 1159 0 
L 581 0 
L 581 4863 
L 1159 4863 
L 1159 2956 
Q 1366 3272 1645 3428 
Q 1925 3584 2291 3584 
Q 2894 3584 3203 3211 
Q 3513 2838 3513 2113 
z
" transform="scale(0.015625)"/>
        <path id="DejaVuSans-6f" d="M 1959 3097 
Q 1497 3097 1228 2736 
Q 959 2375 959 1747 
Q 959 1119 1226 758 
Q 1494 397 1959 397 
Q 2419 397 2687 759 
Q 2956 1122 2956 1747 
Q 2956 2369 2687 2733 
Q 2419 3097 1959 3097 
z
M 1959 3584 
Q 2709 3584 3137 3096 
Q 3566 2609 3566 1747 
Q 3566 888 3137 398 
Q 2709 -91 1959 -91 
Q 1206 -91 779 398 
Q 353 888 353 1747 
Q 353 2609 779 3096 
Q 1206 3584 1959 3584 
z
" transform="scale(0.015625)"/>
        <path id="DejaVuSans-72" d="M 2631 2963 
Q 2534 3019 2420 3045 
Q 2306 3072 2169 3072 
Q 1681 3072 1420 2755 
Q 1159 2438 1159 1844 
L 1159 0 
L 581 0 
L 581 3500 
L 1159 3500 
L 1159 2956 
Q 1341 3275 1631 3429 
Q 1922 3584 2338 3584 
Q 2397 3584 2469 3576 
Q 2541 3569 2628 3553 
L 2631 2963 
z
" transform="scale(0.015625)"/>
       </defs>
       <use xlink:href="#DejaVuSans-61"/>
       <use xlink:href="#DejaVuSans-6e" x="61.279297"/>
       <use xlink:href="#DejaVuSans-61" x="124.658203"/>
       <use xlink:href="#DejaVuSans-70" x="185.9375"/>
       <use xlink:href="#DejaVuSans-68" x="249.414062"/>
       <use xlink:href="#DejaVuSans-6f" x="312.792969"/>
       <use xlink:href="#DejaVuSans-72" x="373.974609"/>
      </g>
      <!-- agreement -->
      <g transform="translate(90.865966 415.8195) scale(0.12 -0.12)">
       <defs>
        <path id="DejaVuSans-67" d="M 2906 1791 
Q 2906 2416 2648 2759 
Q 2391 3103 1925 3103 
Q 1463 3103 1205 2759 
Q 947 2416 947 1791 
Q 947 1169 1205 825 
Q 1463 481 1925 481 
Q 2391 481 2648 825 
Q 2906 1169 2906 1791 
z
M 3481 434 
Q 3481 -459 3084 -895 
Q 2688 -1331 1869 -1331 
Q 1566 -1331 1297 -1286 
Q 1028 -1241 775 -1147 
L 775 -588 
Q 1028 -725 1275 -790 
Q 1522 -856 1778 -856 
Q 2344 -856 2625 -561 
Q 2906 -266 2906 331 
L 2906 616 
Q 2728 306 2450 153 
Q 2172 0 1784 0 
Q 1141 0 747 490 
Q 353 981 353 1791 
Q 353 2603 747 3093 
Q 1141 3584 1784 3584 
Q 2172 3584 2450 3431 
Q 2728 3278 2906 2969 
L 2906 3500 
L 3481 3500 
L 3481 434 
z
" transform="scale(0.015625)"/>
        <path id="DejaVuSans-65" d="M 3597 1894 
L 3597 1613 
L 953 1613 
Q 991 1019 1311 708 
Q 1631 397 2203 397 
Q 2534 397 2845 478 
Q 3156 559 3463 722 
L 3463 178 
Q 3153 47 2828 -22 
Q 2503 -91 2169 -91 
Q 1331 -91 842 396 
Q 353 884 353 1716 
Q 353 2575 817 3079 
Q 1281 3584 2069 3584 
Q 2775 3584 3186 3129 
Q 3597 2675 3597 1894 
z
M 3022 2063 
Q 3016 2534 2758 2815 
Q 2500 3097 2075 3097 
Q 1594 3097 1305 2825 
Q 1016 2553 972 2059 
L 3022 2063 
z
" transform="scale(0.015625)"/>
        <path id="DejaVuSans-6d" d="M 3328 2828 
Q 3544 3216 3844 3400 
Q 4144 3584 4550 3584 
Q 5097 3584 5394 3201 
Q 5691 2819 5691 2113 
L 5691 0 
L 5113 0 
L 5113 2094 
Q 5113 2597 4934 2840 
Q 4756 3084 4391 3084 
Q 3944 3084 3684 2787 
Q 3425 2491 3425 1978 
L 3425 0 
L 2847 0 
L 2847 2094 
Q 2847 2600 2669 2842 
Q 2491 3084 2119 3084 
Q 1678 3084 1418 2786 
Q 1159 2488 1159 1978 
L 1159 0 
L 581 0 
L 581 3500 
L 1159 3500 
L 1159 2956 
Q 1356 3278 1631 3431 
Q 1906 3584 2284 3584 
Q 2666 3584 2933 3390 
Q 3200 3197 3328 2828 
z
" transform="scale(0.015625)"/>
        <path id="DejaVuSans-74" d="M 1172 4494 
L 1172 3500 
L 2356 3500 
L 2356 3053 
L 1172 3053 
L 1172 1153 
Q 1172 725 1289 603 
Q 1406 481 1766 481 
L 2356 481 
L 2356 0 
L 1766 0 
Q 1100 0 847 248 
Q 594 497 594 1153 
L 594 3053 
L 172 3053 
L 172 3500 
L 594 3500 
L 594 4494 
L 1172 4494 
z
" transform="scale(0.015625)"/>
       </defs>
       <use xlink:href="#DejaVuSans-61"/>
       <use xlink:href="#DejaVuSans-67" x="61.279297"/>
       <use xlink:href="#DejaVuSans-72" x="124.755859"/>
       <use xlink:href="#DejaVuSans-65" x="163.619141"/>
       <use xlink:href="#DejaVuSans-65" x="225.142578"/>
       <use xlink:href="#DejaVuSans-6d" x="286.666016"/>
       <use xlink:href="#DejaVuSans-65" x="384.078125"/>
       <use xlink:href="#DejaVuSans-6e" x="445.601562"/>
       <use xlink:href="#DejaVuSans-74" x="508.980469"/>
      </g>
     </g>
    </g>
    <g id="xtick_2">
     <g id="line2d_3">
      <path d="M 196.568461 386.264 
L 196.568461 14.76 
" clip-path="url(#p6264f51e5f)" style="fill: none; stroke: #ebebeb; stroke-width: 0.25; stroke-linecap: square"/>
     </g>
     <g id="line2d_4">
      <g>
       <use xlink:href="#mcbfacdb83f" x="196.568461" y="386.264" style="stroke: #000000; stroke-width: 0.8"/>
      </g>
     </g>
     <g id="text_2">
      <!-- argument -->
      <g transform="translate(167.227523 402.382125) scale(0.12 -0.12)">
       <defs>
        <path id="DejaVuSans-75" d="M 544 1381 
L 544 3500 
L 1119 3500 
L 1119 1403 
Q 1119 906 1312 657 
Q 1506 409 1894 409 
Q 2359 409 2629 706 
Q 2900 1003 2900 1516 
L 2900 3500 
L 3475 3500 
L 3475 0 
L 2900 0 
L 2900 538 
Q 2691 219 2414 64 
Q 2138 -91 1772 -91 
Q 1169 -91 856 284 
Q 544 659 544 1381 
z
M 1991 3584 
L 1991 3584 
z
" transform="scale(0.015625)"/>
       </defs>
       <use xlink:href="#DejaVuSans-61"/>
       <use xlink:href="#DejaVuSans-72" x="61.279297"/>
       <use xlink:href="#DejaVuSans-67" x="100.642578"/>
       <use xlink:href="#DejaVuSans-75" x="164.119141"/>
       <use xlink:href="#DejaVuSans-6d" x="227.498047"/>
       <use xlink:href="#DejaVuSans-65" x="324.910156"/>
       <use xlink:href="#DejaVuSans-6e" x="386.433594"/>
       <use xlink:href="#DejaVuSans-74" x="449.8125"/>
      </g>
      <!-- structure -->
      <g transform="translate(169.344398 415.8195) scale(0.12 -0.12)">
       <defs>
        <path id="DejaVuSans-73" d="M 2834 3397 
L 2834 2853 
Q 2591 2978 2328 3040 
Q 2066 3103 1784 3103 
Q 1356 3103 1142 2972 
Q 928 2841 928 2578 
Q 928 2378 1081 2264 
Q 1234 2150 1697 2047 
L 1894 2003 
Q 2506 1872 2764 1633 
Q 3022 1394 3022 966 
Q 3022 478 2636 193 
Q 2250 -91 1575 -91 
Q 1294 -91 989 -36 
Q 684 19 347 128 
L 347 722 
Q 666 556 975 473 
Q 1284 391 1588 391 
Q 1994 391 2212 530 
Q 2431 669 2431 922 
Q 2431 1156 2273 1281 
Q 2116 1406 1581 1522 
L 1381 1569 
Q 847 1681 609 1914 
Q 372 2147 372 2553 
Q 372 3047 722 3315 
Q 1072 3584 1716 3584 
Q 2034 3584 2315 3537 
Q 2597 3491 2834 3397 
z
" transform="scale(0.015625)"/>
        <path id="DejaVuSans-63" d="M 3122 3366 
L 3122 2828 
Q 2878 2963 2633 3030 
Q 2388 3097 2138 3097 
Q 1578 3097 1268 2742 
Q 959 2388 959 1747 
Q 959 1106 1268 751 
Q 1578 397 2138 397 
Q 2388 397 2633 464 
Q 2878 531 3122 666 
L 3122 134 
Q 2881 22 2623 -34 
Q 2366 -91 2075 -91 
Q 1284 -91 818 406 
Q 353 903 353 1747 
Q 353 2603 823 3093 
Q 1294 3584 2113 3584 
Q 2378 3584 2631 3529 
Q 2884 3475 3122 3366 
z
" transform="scale(0.015625)"/>
       </defs>
       <use xlink:href="#DejaVuSans-73"/>
       <use xlink:href="#DejaVuSans-74" x="52.099609"/>
       <use xlink:href="#DejaVuSans-72" x="91.308594"/>
       <use xlink:href="#DejaVuSans-75" x="132.421875"/>
       <use xlink:href="#DejaVuSans-63" x="195.800781"/>
       <use xlink:href="#DejaVuSans-74" x="250.78125"/>
       <use xlink:href="#DejaVuSans-75" x="289.990234"/>
       <use xlink:href="#DejaVuSans-72" x="353.369141"/>
       <use xlink:href="#DejaVuSans-65" x="392.232422"/>
      </g>
     </g>
    </g>
    <g id="xtick_3">
     <g id="line2d_5">
      <path d="M 269.378769 386.264 
L 269.378769 14.76 
" clip-path="url(#p6264f51e5f)" style="fill: none; stroke: #ebebeb; stroke-width: 0.25; stroke-linecap: square"/>
     </g>
     <g id="line2d_6">
      <g>
       <use xlink:href="#mcbfacdb83f" x="269.378769" y="386.264" style="stroke: #000000; stroke-width: 0.8"/>
      </g>
     </g>
     <g id="text_3">
      <!-- binding -->
      <g transform="translate(247.012831 402.382125) scale(0.12 -0.12)">
       <defs>
        <path id="DejaVuSans-62" d="M 3116 1747 
Q 3116 2381 2855 2742 
Q 2594 3103 2138 3103 
Q 1681 3103 1420 2742 
Q 1159 2381 1159 1747 
Q 1159 1113 1420 752 
Q 1681 391 2138 391 
Q 2594 391 2855 752 
Q 3116 1113 3116 1747 
z
M 1159 2969 
Q 1341 3281 1617 3432 
Q 1894 3584 2278 3584 
Q 2916 3584 3314 3078 
Q 3713 2572 3713 1747 
Q 3713 922 3314 415 
Q 2916 -91 2278 -91 
Q 1894 -91 1617 61 
Q 1341 213 1159 525 
L 1159 0 
L 581 0 
L 581 4863 
L 1159 4863 
L 1159 2969 
z
" transform="scale(0.015625)"/>
        <path id="DejaVuSans-69" d="M 603 3500 
L 1178 3500 
L 1178 0 
L 603 0 
L 603 3500 
z
M 603 4863 
L 1178 4863 
L 1178 4134 
L 603 4134 
L 603 4863 
z
" transform="scale(0.015625)"/>
        <path id="DejaVuSans-64" d="M 2906 2969 
L 2906 4863 
L 3481 4863 
L 3481 0 
L 2906 0 
L 2906 525 
Q 2725 213 2448 61 
Q 2172 -91 1784 -91 
Q 1150 -91 751 415 
Q 353 922 353 1747 
Q 353 2572 751 3078 
Q 1150 3584 1784 3584 
Q 2172 3584 2448 3432 
Q 2725 3281 2906 2969 
z
M 947 1747 
Q 947 1113 1208 752 
Q 1469 391 1925 391 
Q 2381 391 2643 752 
Q 2906 1113 2906 1747 
Q 2906 2381 2643 2742 
Q 2381 3103 1925 3103 
Q 1469 3103 1208 2742 
Q 947 2381 947 1747 
z
" transform="scale(0.015625)"/>
       </defs>
       <use xlink:href="#DejaVuSans-62"/>
       <use xlink:href="#DejaVuSans-69" x="63.476562"/>
       <use xlink:href="#DejaVuSans-6e" x="91.259766"/>
       <use xlink:href="#DejaVuSans-64" x="154.638672"/>
       <use xlink:href="#DejaVuSans-69" x="218.115234"/>
       <use xlink:href="#DejaVuSans-6e" x="245.898438"/>
       <use xlink:href="#DejaVuSans-67" x="309.277344"/>
      </g>
     </g>
    </g>
    <g id="xtick_4">
     <g id="line2d_7">
      <path d="M 342.189077 386.264 
L 342.189077 14.76 
" clip-path="url(#p6264f51e5f)" style="fill: none; stroke: #ebebeb; stroke-width: 0.25; stroke-linecap: square"/>
     </g>
     <g id="line2d_8">
      <g>
       <use xlink:href="#mcbfacdb83f" x="342.189077" y="386.264" style="stroke: #000000; stroke-width: 0.8"/>
      </g>
     </g>
     <g id="text_4">
      <!-- control -->
      <g transform="translate(321.394389 402.382125) scale(0.12 -0.12)">
       <defs>
        <path id="DejaVuSans-6c" d="M 603 4863 
L 1178 4863 
L 1178 0 
L 603 0 
L 603 4863 
z
" transform="scale(0.015625)"/>
       </defs>
       <use xlink:href="#DejaVuSans-63"/>
       <use xlink:href="#DejaVuSans-6f" x="54.980469"/>
       <use xlink:href="#DejaVuSans-6e" x="116.162109"/>
       <use xlink:href="#DejaVuSans-74" x="179.541016"/>
       <use xlink:href="#DejaVuSans-72" x="218.75"/>
       <use xlink:href="#DejaVuSans-6f" x="257.613281"/>
       <use xlink:href="#DejaVuSans-6c" x="318.794922"/>
      </g>
      <!-- raising -->
      <g transform="translate(321.974702 415.8195) scale(0.12 -0.12)">
       <use xlink:href="#DejaVuSans-72"/>
       <use xlink:href="#DejaVuSans-61" x="41.113281"/>
       <use xlink:href="#DejaVuSans-69" x="102.392578"/>
       <use xlink:href="#DejaVuSans-73" x="130.175781"/>
       <use xlink:href="#DejaVuSans-69" x="182.275391"/>
       <use xlink:href="#DejaVuSans-6e" x="210.058594"/>
       <use xlink:href="#DejaVuSans-67" x="273.4375"/>
      </g>
     </g>
    </g>
    <g id="xtick_5">
     <g id="line2d_9">
      <path d="M 414.999384 386.264 
L 414.999384 14.76 
" clip-path="url(#p6264f51e5f)" style="fill: none; stroke: #ebebeb; stroke-width: 0.25; stroke-linecap: square"/>
     </g>
     <g id="line2d_10">
      <g>
       <use xlink:href="#mcbfacdb83f" x="414.999384" y="386.264" style="stroke: #000000; stroke-width: 0.8"/>
      </g>
     </g>
     <g id="text_5">
      <!-- determiner-noun -->
      <g transform="translate(364.759697 402.382125) scale(0.12 -0.12)">
       <defs>
        <path id="DejaVuSans-2d" d="M 313 2009 
L 1997 2009 
L 1997 1497 
L 313 1497 
L 313 2009 
z
" transform="scale(0.015625)"/>
       </defs>
       <use xlink:href="#DejaVuSans-64"/>
       <use xlink:href="#DejaVuSans-65" x="63.476562"/>
       <use xlink:href="#DejaVuSans-74" x="125"/>
       <use xlink:href="#DejaVuSans-65" x="164.208984"/>
       <use xlink:href="#DejaVuSans-72" x="225.732422"/>
       <use xlink:href="#DejaVuSans-6d" x="265.095703"/>
       <use xlink:href="#DejaVuSans-69" x="362.507812"/>
       <use xlink:href="#DejaVuSans-6e" x="390.291016"/>
       <use xlink:href="#DejaVuSans-65" x="453.669922"/>
       <use xlink:href="#DejaVuSans-72" x="515.193359"/>
       <use xlink:href="#DejaVuSans-2d" x="549.931641"/>
       <use xlink:href="#DejaVuSans-6e" x="586.015625"/>
       <use xlink:href="#DejaVuSans-6f" x="649.394531"/>
       <use xlink:href="#DejaVuSans-75" x="710.576172"/>
       <use xlink:href="#DejaVuSans-6e" x="773.955078"/>
      </g>
      <!-- agreement -->
      <g transform="translate(382.107197 415.8195) scale(0.12 -0.12)">
       <use xlink:href="#DejaVuSans-61"/>
       <use xlink:href="#DejaVuSans-67" x="61.279297"/>
       <use xlink:href="#DejaVuSans-72" x="124.755859"/>
       <use xlink:href="#DejaVuSans-65" x="163.619141"/>
       <use xlink:href="#DejaVuSans-65" x="225.142578"/>
       <use xlink:href="#DejaVuSans-6d" x="286.666016"/>
       <use xlink:href="#DejaVuSans-65" x="384.078125"/>
       <use xlink:href="#DejaVuSans-6e" x="445.601562"/>
       <use xlink:href="#DejaVuSans-74" x="508.980469"/>
      </g>
     </g>
    </g>
    <g id="xtick_6">
     <g id="line2d_11">
      <path d="M 487.809692 386.264 
L 487.809692 14.76 
" clip-path="url(#p6264f51e5f)" style="fill: none; stroke: #ebebeb; stroke-width: 0.25; stroke-linecap: square"/>
     </g>
     <g id="line2d_12">
      <g>
       <use xlink:href="#mcbfacdb83f" x="487.809692" y="386.264" style="stroke: #000000; stroke-width: 0.8"/>
      </g>
     </g>
     <g id="text_6">
      <!-- ellipsis -->
      <g transform="translate(467.390005 402.382125) scale(0.12 -0.12)">
       <use xlink:href="#DejaVuSans-65"/>
       <use xlink:href="#DejaVuSans-6c" x="61.523438"/>
       <use xlink:href="#DejaVuSans-6c" x="89.306641"/>
       <use xlink:href="#DejaVuSans-69" x="117.089844"/>
       <use xlink:href="#DejaVuSans-70" x="144.873047"/>
       <use xlink:href="#DejaVuSans-73" x="208.349609"/>
       <use xlink:href="#DejaVuSans-69" x="260.449219"/>
       <use xlink:href="#DejaVuSans-73" x="288.232422"/>
      </g>
     </g>
    </g>
    <g id="xtick_7">
     <g id="line2d_13">
      <path d="M 560.62 386.264 
L 560.62 14.76 
" clip-path="url(#p6264f51e5f)" style="fill: none; stroke: #ebebeb; stroke-width: 0.25; stroke-linecap: square"/>
     </g>
     <g id="line2d_14">
      <g>
       <use xlink:href="#mcbfacdb83f" x="560.62" y="386.264" style="stroke: #000000; stroke-width: 0.8"/>
      </g>
     </g>
     <g id="text_7">
      <!-- filler-gap -->
      <g transform="translate(534.271563 402.382125) scale(0.12 -0.12)">
       <defs>
        <path id="DejaVuSans-66" d="M 2375 4863 
L 2375 4384 
L 1825 4384 
Q 1516 4384 1395 4259 
Q 1275 4134 1275 3809 
L 1275 3500 
L 2222 3500 
L 2222 3053 
L 1275 3053 
L 1275 0 
L 697 0 
L 697 3053 
L 147 3053 
L 147 3500 
L 697 3500 
L 697 3744 
Q 697 4328 969 4595 
Q 1241 4863 1831 4863 
L 2375 4863 
z
" transform="scale(0.015625)"/>
       </defs>
       <use xlink:href="#DejaVuSans-66"/>
       <use xlink:href="#DejaVuSans-69" x="35.205078"/>
       <use xlink:href="#DejaVuSans-6c" x="62.988281"/>
       <use xlink:href="#DejaVuSans-6c" x="90.771484"/>
       <use xlink:href="#DejaVuSans-65" x="118.554688"/>
       <use xlink:href="#DejaVuSans-72" x="180.078125"/>
       <use xlink:href="#DejaVuSans-2d" x="214.816406"/>
       <use xlink:href="#DejaVuSans-67" x="250.900391"/>
       <use xlink:href="#DejaVuSans-61" x="314.376953"/>
       <use xlink:href="#DejaVuSans-70" x="375.65625"/>
      </g>
      <!-- dependency -->
      <g transform="translate(523.661875 415.8195) scale(0.12 -0.12)">
       <defs>
        <path id="DejaVuSans-79" d="M 2059 -325 
Q 1816 -950 1584 -1140 
Q 1353 -1331 966 -1331 
L 506 -1331 
L 506 -850 
L 844 -850 
Q 1081 -850 1212 -737 
Q 1344 -625 1503 -206 
L 1606 56 
L 191 3500 
L 800 3500 
L 1894 763 
L 2988 3500 
L 3597 3500 
L 2059 -325 
z
" transform="scale(0.015625)"/>
       </defs>
       <use xlink:href="#DejaVuSans-64"/>
       <use xlink:href="#DejaVuSans-65" x="63.476562"/>
       <use xlink:href="#DejaVuSans-70" x="125"/>
       <use xlink:href="#DejaVuSans-65" x="188.476562"/>
       <use xlink:href="#DejaVuSans-6e" x="250"/>
       <use xlink:href="#DejaVuSans-64" x="313.378906"/>
       <use xlink:href="#DejaVuSans-65" x="376.855469"/>
       <use xlink:href="#DejaVuSans-6e" x="438.378906"/>
       <use xlink:href="#DejaVuSans-63" x="501.757812"/>
       <use xlink:href="#DejaVuSans-79" x="556.738281"/>
      </g>
     </g>
    </g>
    <g id="xtick_8">
     <g id="line2d_15">
      <path d="M 633.430308 386.264 
L 633.430308 14.76 
" clip-path="url(#p6264f51e5f)" style="fill: none; stroke: #ebebeb; stroke-width: 0.25; stroke-linecap: square"/>
     </g>
     <g id="line2d_16">
      <g>
       <use xlink:href="#mcbfacdb83f" x="633.430308" y="386.264" style="stroke: #000000; stroke-width: 0.8"/>
      </g>
     </g>
     <g id="text_8">
      <!-- irregular -->
      <g transform="translate(607.956558 402.382125) scale(0.12 -0.12)">
       <use xlink:href="#DejaVuSans-69"/>
       <use xlink:href="#DejaVuSans-72" x="27.783203"/>
       <use xlink:href="#DejaVuSans-72" x="67.146484"/>
       <use xlink:href="#DejaVuSans-65" x="106.009766"/>
       <use xlink:href="#DejaVuSans-67" x="167.533203"/>
       <use xlink:href="#DejaVuSans-75" x="231.009766"/>
       <use xlink:href="#DejaVuSans-6c" x="294.388672"/>
       <use xlink:href="#DejaVuSans-61" x="322.171875"/>
       <use xlink:href="#DejaVuSans-72" x="383.451172"/>
      </g>
      <!-- forms -->
      <g transform="translate(616.315308 415.8195) scale(0.12 -0.12)">
       <use xlink:href="#DejaVuSans-66"/>
       <use xlink:href="#DejaVuSans-6f" x="35.205078"/>
       <use xlink:href="#DejaVuSans-72" x="96.386719"/>
       <use xlink:href="#DejaVuSans-6d" x="135.75"/>
       <use xlink:href="#DejaVuSans-73" x="233.162109"/>
      </g>
     </g>
    </g>
    <g id="xtick_9">
     <g id="line2d_17">
      <path d="M 706.240616 386.264 
L 706.240616 14.76 
" clip-path="url(#p6264f51e5f)" style="fill: none; stroke: #ebebeb; stroke-width: 0.25; stroke-linecap: square"/>
     </g>
     <g id="line2d_18">
      <g>
       <use xlink:href="#mcbfacdb83f" x="706.240616" y="386.264" style="stroke: #000000; stroke-width: 0.8"/>
      </g>
     </g>
     <g id="text_9">
      <!-- island -->
      <g transform="translate(688.492803 402.382125) scale(0.12 -0.12)">
       <use xlink:href="#DejaVuSans-69"/>
       <use xlink:href="#DejaVuSans-73" x="27.783203"/>
       <use xlink:href="#DejaVuSans-6c" x="79.882812"/>
       <use xlink:href="#DejaVuSans-61" x="107.666016"/>
       <use xlink:href="#DejaVuSans-6e" x="168.945312"/>
       <use xlink:href="#DejaVuSans-64" x="232.324219"/>
      </g>
      <!-- effects -->
      <g transform="translate(685.855616 415.8195) scale(0.12 -0.12)">
       <use xlink:href="#DejaVuSans-65"/>
       <use xlink:href="#DejaVuSans-66" x="61.523438"/>
       <use xlink:href="#DejaVuSans-66" x="96.728516"/>
       <use xlink:href="#DejaVuSans-65" x="131.933594"/>
       <use xlink:href="#DejaVuSans-63" x="193.457031"/>
       <use xlink:href="#DejaVuSans-74" x="248.4375"/>
       <use xlink:href="#DejaVuSans-73" x="287.646484"/>
      </g>
     </g>
    </g>
    <g id="xtick_10">
     <g id="line2d_19">
      <path d="M 779.050923 386.264 
L 779.050923 14.76 
" clip-path="url(#p6264f51e5f)" style="fill: none; stroke: #ebebeb; stroke-width: 0.25; stroke-linecap: square"/>
     </g>
     <g id="line2d_20">
      <g>
       <use xlink:href="#mcbfacdb83f" x="779.050923" y="386.264" style="stroke: #000000; stroke-width: 0.8"/>
      </g>
     </g>
     <g id="text_10">
      <!-- npi -->
      <g transform="translate(769.772486 402.382125) scale(0.12 -0.12)">
       <use xlink:href="#DejaVuSans-6e"/>
       <use xlink:href="#DejaVuSans-70" x="63.378906"/>
       <use xlink:href="#DejaVuSans-69" x="126.855469"/>
      </g>
      <!-- licensing -->
      <g transform="translate(752.519673 415.8195) scale(0.12 -0.12)">
       <use xlink:href="#DejaVuSans-6c"/>
       <use xlink:href="#DejaVuSans-69" x="27.783203"/>
       <use xlink:href="#DejaVuSans-63" x="55.566406"/>
       <use xlink:href="#DejaVuSans-65" x="110.546875"/>
       <use xlink:href="#DejaVuSans-6e" x="172.070312"/>
       <use xlink:href="#DejaVuSans-73" x="235.449219"/>
       <use xlink:href="#DejaVuSans-69" x="287.548828"/>
       <use xlink:href="#DejaVuSans-6e" x="315.332031"/>
       <use xlink:href="#DejaVuSans-67" x="378.710938"/>
      </g>
     </g>
    </g>
    <g id="xtick_11">
     <g id="line2d_21">
      <path d="M 851.861231 386.264 
L 851.861231 14.76 
" clip-path="url(#p6264f51e5f)" style="fill: none; stroke: #ebebeb; stroke-width: 0.25; stroke-linecap: square"/>
     </g>
     <g id="line2d_22">
      <g>
       <use xlink:href="#mcbfacdb83f" x="851.861231" y="386.264" style="stroke: #000000; stroke-width: 0.8"/>
      </g>
     </g>
     <g id="text_11">
      <!-- quantifiers -->
      <g transform="translate(819.688106 402.382125) scale(0.12 -0.12)">
       <defs>
        <path id="DejaVuSans-71" d="M 947 1747 
Q 947 1113 1208 752 
Q 1469 391 1925 391 
Q 2381 391 2643 752 
Q 2906 1113 2906 1747 
Q 2906 2381 2643 2742 
Q 2381 3103 1925 3103 
Q 1469 3103 1208 2742 
Q 947 2381 947 1747 
z
M 2906 525 
Q 2725 213 2448 61 
Q 2172 -91 1784 -91 
Q 1150 -91 751 415 
Q 353 922 353 1747 
Q 353 2572 751 3078 
Q 1150 3584 1784 3584 
Q 2172 3584 2448 3432 
Q 2725 3281 2906 2969 
L 2906 3500 
L 3481 3500 
L 3481 -1331 
L 2906 -1331 
L 2906 525 
z
" transform="scale(0.015625)"/>
       </defs>
       <use xlink:href="#DejaVuSans-71"/>
       <use xlink:href="#DejaVuSans-75" x="63.476562"/>
       <use xlink:href="#DejaVuSans-61" x="126.855469"/>
       <use xlink:href="#DejaVuSans-6e" x="188.134766"/>
       <use xlink:href="#DejaVuSans-74" x="251.513672"/>
       <use xlink:href="#DejaVuSans-69" x="290.722656"/>
       <use xlink:href="#DejaVuSans-66" x="318.505859"/>
       <use xlink:href="#DejaVuSans-69" x="353.710938"/>
       <use xlink:href="#DejaVuSans-65" x="381.494141"/>
       <use xlink:href="#DejaVuSans-72" x="443.017578"/>
       <use xlink:href="#DejaVuSans-73" x="484.130859"/>
      </g>
     </g>
    </g>
    <g id="xtick_12">
     <g id="line2d_23">
      <path d="M 924.671539 386.264 
L 924.671539 14.76 
" clip-path="url(#p6264f51e5f)" style="fill: none; stroke: #ebebeb; stroke-width: 0.25; stroke-linecap: square"/>
     </g>
     <g id="line2d_24">
      <g>
       <use xlink:href="#mcbfacdb83f" x="924.671539" y="386.264" style="stroke: #000000; stroke-width: 0.8"/>
      </g>
     </g>
     <g id="text_12">
      <!-- s-selection -->
      <g transform="translate(892.413102 402.382125) scale(0.12 -0.12)">
       <use xlink:href="#DejaVuSans-73"/>
       <use xlink:href="#DejaVuSans-2d" x="52.099609"/>
       <use xlink:href="#DejaVuSans-73" x="88.183594"/>
       <use xlink:href="#DejaVuSans-65" x="140.283203"/>
       <use xlink:href="#DejaVuSans-6c" x="201.806641"/>
       <use xlink:href="#DejaVuSans-65" x="229.589844"/>
       <use xlink:href="#DejaVuSans-63" x="291.113281"/>
       <use xlink:href="#DejaVuSans-74" x="346.09375"/>
       <use xlink:href="#DejaVuSans-69" x="385.302734"/>
       <use xlink:href="#DejaVuSans-6f" x="413.085938"/>
       <use xlink:href="#DejaVuSans-6e" x="474.267578"/>
      </g>
     </g>
    </g>
    <g id="xtick_13">
     <g id="line2d_25">
      <path d="M 997.481847 386.264 
L 997.481847 14.76 
" clip-path="url(#p6264f51e5f)" style="fill: none; stroke: #ebebeb; stroke-width: 0.25; stroke-linecap: square"/>
     </g>
     <g id="line2d_26">
      <g>
       <use xlink:href="#mcbfacdb83f" x="997.481847" y="386.264" style="stroke: #000000; stroke-width: 0.8"/>
      </g>
     </g>
     <g id="text_13">
      <!-- subject-verb -->
      <g transform="translate(960.208722 402.382125) scale(0.12 -0.12)">
       <defs>
        <path id="DejaVuSans-6a" d="M 603 3500 
L 1178 3500 
L 1178 -63 
Q 1178 -731 923 -1031 
Q 669 -1331 103 -1331 
L -116 -1331 
L -116 -844 
L 38 -844 
Q 366 -844 484 -692 
Q 603 -541 603 -63 
L 603 3500 
z
M 603 4863 
L 1178 4863 
L 1178 4134 
L 603 4134 
L 603 4863 
z
" transform="scale(0.015625)"/>
        <path id="DejaVuSans-76" d="M 191 3500 
L 800 3500 
L 1894 563 
L 2988 3500 
L 3597 3500 
L 2284 0 
L 1503 0 
L 191 3500 
z
" transform="scale(0.015625)"/>
       </defs>
       <use xlink:href="#DejaVuSans-73"/>
       <use xlink:href="#DejaVuSans-75" x="52.099609"/>
       <use xlink:href="#DejaVuSans-62" x="115.478516"/>
       <use xlink:href="#DejaVuSans-6a" x="178.955078"/>
       <use xlink:href="#DejaVuSans-65" x="206.738281"/>
       <use xlink:href="#DejaVuSans-63" x="268.261719"/>
       <use xlink:href="#DejaVuSans-74" x="323.242188"/>
       <use xlink:href="#DejaVuSans-2d" x="362.451172"/>
       <use xlink:href="#DejaVuSans-76" x="395.910156"/>
       <use xlink:href="#DejaVuSans-65" x="455.089844"/>
       <use xlink:href="#DejaVuSans-72" x="516.613281"/>
       <use xlink:href="#DejaVuSans-62" x="557.726562"/>
      </g>
      <!-- agreement -->
      <g transform="translate(964.589659 415.8195) scale(0.12 -0.12)">
       <use xlink:href="#DejaVuSans-61"/>
       <use xlink:href="#DejaVuSans-67" x="61.279297"/>
       <use xlink:href="#DejaVuSans-72" x="124.755859"/>
       <use xlink:href="#DejaVuSans-65" x="163.619141"/>
       <use xlink:href="#DejaVuSans-65" x="225.142578"/>
       <use xlink:href="#DejaVuSans-6d" x="286.666016"/>
       <use xlink:href="#DejaVuSans-65" x="384.078125"/>
       <use xlink:href="#DejaVuSans-6e" x="445.601562"/>
       <use xlink:href="#DejaVuSans-74" x="508.980469"/>
      </g>
     </g>
    </g>
   </g>
   <g id="matplotlib.axis_2">
    <g id="ytick_1">
     <g id="line2d_27">
      <path d="M 52.04 386.264 
L 1069.2 386.264 
" clip-path="url(#p6264f51e5f)" style="fill: none; stroke: #ebebeb; stroke-width: 0.25; stroke-linecap: square"/>
     </g>
     <g id="line2d_28">
      <defs>
       <path id="mc3bc612ae6" d="M 0 0 
L -3.5 0 
" style="stroke: #000000; stroke-width: 0.8"/>
      </defs>
      <g>
       <use xlink:href="#mc3bc612ae6" x="52.04" y="386.264" style="stroke: #000000; stroke-width: 0.8"/>
      </g>
     </g>
     <g id="text_14">
      <!-- 0.0 -->
      <g transform="translate(29.136875 390.063219) scale(0.1 -0.1)">
       <defs>
        <path id="DejaVuSans-30" d="M 2034 4250 
Q 1547 4250 1301 3770 
Q 1056 3291 1056 2328 
Q 1056 1369 1301 889 
Q 1547 409 2034 409 
Q 2525 409 2770 889 
Q 3016 1369 3016 2328 
Q 3016 3291 2770 3770 
Q 2525 4250 2034 4250 
z
M 2034 4750 
Q 2819 4750 3233 4129 
Q 3647 3509 3647 2328 
Q 3647 1150 3233 529 
Q 2819 -91 2034 -91 
Q 1250 -91 836 529 
Q 422 1150 422 2328 
Q 422 3509 836 4129 
Q 1250 4750 2034 4750 
z
" transform="scale(0.015625)"/>
        <path id="DejaVuSans-2e" d="M 684 794 
L 1344 794 
L 1344 0 
L 684 0 
L 684 794 
z
" transform="scale(0.015625)"/>
       </defs>
       <use xlink:href="#DejaVuSans-30"/>
       <use xlink:href="#DejaVuSans-2e" x="63.623047"/>
       <use xlink:href="#DejaVuSans-30" x="95.410156"/>
      </g>
     </g>
    </g>
    <g id="ytick_2">
     <g id="line2d_29">
      <path d="M 52.04 311.9632 
L 1069.2 311.9632 
" clip-path="url(#p6264f51e5f)" style="fill: none; stroke: #ebebeb; stroke-width: 0.25; stroke-linecap: square"/>
     </g>
     <g id="line2d_30">
      <g>
       <use xlink:href="#mc3bc612ae6" x="52.04" y="311.9632" style="stroke: #000000; stroke-width: 0.8"/>
      </g>
     </g>
     <g id="text_15">
      <!-- 0.2 -->
      <g transform="translate(29.136875 315.762419) scale(0.1 -0.1)">
       <defs>
        <path id="DejaVuSans-32" d="M 1228 531 
L 3431 531 
L 3431 0 
L 469 0 
L 469 531 
Q 828 903 1448 1529 
Q 2069 2156 2228 2338 
Q 2531 2678 2651 2914 
Q 2772 3150 2772 3378 
Q 2772 3750 2511 3984 
Q 2250 4219 1831 4219 
Q 1534 4219 1204 4116 
Q 875 4013 500 3803 
L 500 4441 
Q 881 4594 1212 4672 
Q 1544 4750 1819 4750 
Q 2544 4750 2975 4387 
Q 3406 4025 3406 3419 
Q 3406 3131 3298 2873 
Q 3191 2616 2906 2266 
Q 2828 2175 2409 1742 
Q 1991 1309 1228 531 
z
" transform="scale(0.015625)"/>
       </defs>
       <use xlink:href="#DejaVuSans-30"/>
       <use xlink:href="#DejaVuSans-2e" x="63.623047"/>
       <use xlink:href="#DejaVuSans-32" x="95.410156"/>
      </g>
     </g>
    </g>
    <g id="ytick_3">
     <g id="line2d_31">
      <path d="M 52.04 237.6624 
L 1069.2 237.6624 
" clip-path="url(#p6264f51e5f)" style="fill: none; stroke: #ebebeb; stroke-width: 0.25; stroke-linecap: square"/>
     </g>
     <g id="line2d_32">
      <g>
       <use xlink:href="#mc3bc612ae6" x="52.04" y="237.6624" style="stroke: #000000; stroke-width: 0.8"/>
      </g>
     </g>
     <g id="text_16">
      <!-- 0.4 -->
      <g transform="translate(29.136875 241.461619) scale(0.1 -0.1)">
       <defs>
        <path id="DejaVuSans-34" d="M 2419 4116 
L 825 1625 
L 2419 1625 
L 2419 4116 
z
M 2253 4666 
L 3047 4666 
L 3047 1625 
L 3713 1625 
L 3713 1100 
L 3047 1100 
L 3047 0 
L 2419 0 
L 2419 1100 
L 313 1100 
L 313 1709 
L 2253 4666 
z
" transform="scale(0.015625)"/>
       </defs>
       <use xlink:href="#DejaVuSans-30"/>
       <use xlink:href="#DejaVuSans-2e" x="63.623047"/>
       <use xlink:href="#DejaVuSans-34" x="95.410156"/>
      </g>
     </g>
    </g>
    <g id="ytick_4">
     <g id="line2d_33">
      <path d="M 52.04 163.3616 
L 1069.2 163.3616 
" clip-path="url(#p6264f51e5f)" style="fill: none; stroke: #ebebeb; stroke-width: 0.25; stroke-linecap: square"/>
     </g>
     <g id="line2d_34">
      <g>
       <use xlink:href="#mc3bc612ae6" x="52.04" y="163.3616" style="stroke: #000000; stroke-width: 0.8"/>
      </g>
     </g>
     <g id="text_17">
      <!-- 0.6 -->
      <g transform="translate(29.136875 167.160819) scale(0.1 -0.1)">
       <defs>
        <path id="DejaVuSans-36" d="M 2113 2584 
Q 1688 2584 1439 2293 
Q 1191 2003 1191 1497 
Q 1191 994 1439 701 
Q 1688 409 2113 409 
Q 2538 409 2786 701 
Q 3034 994 3034 1497 
Q 3034 2003 2786 2293 
Q 2538 2584 2113 2584 
z
M 3366 4563 
L 3366 3988 
Q 3128 4100 2886 4159 
Q 2644 4219 2406 4219 
Q 1781 4219 1451 3797 
Q 1122 3375 1075 2522 
Q 1259 2794 1537 2939 
Q 1816 3084 2150 3084 
Q 2853 3084 3261 2657 
Q 3669 2231 3669 1497 
Q 3669 778 3244 343 
Q 2819 -91 2113 -91 
Q 1303 -91 875 529 
Q 447 1150 447 2328 
Q 447 3434 972 4092 
Q 1497 4750 2381 4750 
Q 2619 4750 2861 4703 
Q 3103 4656 3366 4563 
z
" transform="scale(0.015625)"/>
       </defs>
       <use xlink:href="#DejaVuSans-30"/>
       <use xlink:href="#DejaVuSans-2e" x="63.623047"/>
       <use xlink:href="#DejaVuSans-36" x="95.410156"/>
      </g>
     </g>
    </g>
    <g id="ytick_5">
     <g id="line2d_35">
      <path d="M 52.04 89.0608 
L 1069.2 89.0608 
" clip-path="url(#p6264f51e5f)" style="fill: none; stroke: #ebebeb; stroke-width: 0.25; stroke-linecap: square"/>
     </g>
     <g id="line2d_36">
      <g>
       <use xlink:href="#mc3bc612ae6" x="52.04" y="89.0608" style="stroke: #000000; stroke-width: 0.8"/>
      </g>
     </g>
     <g id="text_18">
      <!-- 0.8 -->
      <g transform="translate(29.136875 92.860019) scale(0.1 -0.1)">
       <defs>
        <path id="DejaVuSans-38" d="M 2034 2216 
Q 1584 2216 1326 1975 
Q 1069 1734 1069 1313 
Q 1069 891 1326 650 
Q 1584 409 2034 409 
Q 2484 409 2743 651 
Q 3003 894 3003 1313 
Q 3003 1734 2745 1975 
Q 2488 2216 2034 2216 
z
M 1403 2484 
Q 997 2584 770 2862 
Q 544 3141 544 3541 
Q 544 4100 942 4425 
Q 1341 4750 2034 4750 
Q 2731 4750 3128 4425 
Q 3525 4100 3525 3541 
Q 3525 3141 3298 2862 
Q 3072 2584 2669 2484 
Q 3125 2378 3379 2068 
Q 3634 1759 3634 1313 
Q 3634 634 3220 271 
Q 2806 -91 2034 -91 
Q 1263 -91 848 271 
Q 434 634 434 1313 
Q 434 1759 690 2068 
Q 947 2378 1403 2484 
z
M 1172 3481 
Q 1172 3119 1398 2916 
Q 1625 2713 2034 2713 
Q 2441 2713 2670 2916 
Q 2900 3119 2900 3481 
Q 2900 3844 2670 4047 
Q 2441 4250 2034 4250 
Q 1625 4250 1398 4047 
Q 1172 3844 1172 3481 
z
" transform="scale(0.015625)"/>
       </defs>
       <use xlink:href="#DejaVuSans-30"/>
       <use xlink:href="#DejaVuSans-2e" x="63.623047"/>
       <use xlink:href="#DejaVuSans-38" x="95.410156"/>
      </g>
     </g>
    </g>
    <g id="ytick_6">
     <g id="line2d_37">
      <path d="M 52.04 14.76 
L 1069.2 14.76 
" clip-path="url(#p6264f51e5f)" style="fill: none; stroke: #ebebeb; stroke-width: 0.25; stroke-linecap: square"/>
     </g>
     <g id="line2d_38">
      <g>
       <use xlink:href="#mc3bc612ae6" x="52.04" y="14.76" style="stroke: #000000; stroke-width: 0.8"/>
      </g>
     </g>
     <g id="text_19">
      <!-- 1.0 -->
      <g transform="translate(29.136875 18.559219) scale(0.1 -0.1)">
       <defs>
        <path id="DejaVuSans-31" d="M 794 531 
L 1825 531 
L 1825 4091 
L 703 3866 
L 703 4441 
L 1819 4666 
L 2450 4666 
L 2450 531 
L 3481 531 
L 3481 0 
L 794 0 
L 794 531 
z
" transform="scale(0.015625)"/>
       </defs>
       <use xlink:href="#DejaVuSans-31"/>
       <use xlink:href="#DejaVuSans-2e" x="63.623047"/>
       <use xlink:href="#DejaVuSans-30" x="95.410156"/>
      </g>
     </g>
    </g>
    <g id="text_20">
     <!-- score -->
     <g transform="translate(21.809375 222.0045) rotate(-90) scale(0.16 -0.16)">
      <use xlink:href="#DejaVuSans-73"/>
      <use xlink:href="#DejaVuSans-63" x="52.099609"/>
      <use xlink:href="#DejaVuSans-6f" x="107.080078"/>
      <use xlink:href="#DejaVuSans-72" x="168.261719"/>
      <use xlink:href="#DejaVuSans-65" x="207.125"/>
     </g>
    </g>
   </g>
   <g id="patch_3">
    <path d="M 52.04 386.264 
L 52.04 14.76 
" style="fill: none; stroke: #000000; stroke-width: 0.8; stroke-linejoin: miter; stroke-linecap: square"/>
   </g>
   <g id="patch_4">
    <path d="M 1069.2 386.264 
L 1069.2 14.76 
" style="fill: none; stroke: #000000; stroke-width: 0.8; stroke-linejoin: miter; stroke-linecap: square"/>
   </g>
   <g id="patch_5">
    <path d="M 52.04 386.264 
L 1069.2 386.264 
" style="fill: none; stroke: #000000; stroke-width: 0.8; stroke-linejoin: miter; stroke-linecap: square"/>
   </g>
   <g id="patch_6">
    <path d="M 52.04 14.76 
L 1069.2 14.76 
" style="fill: none; stroke: #000000; stroke-width: 0.8; stroke-linejoin: miter; stroke-linecap: square"/>
   </g>
   <g id="patch_7">
    <path d="M 98.274545 386.264 
L 123.758153 386.264 
L 123.758153 84.045496 
L 98.274545 84.045496 
z
" clip-path="url(#p6264f51e5f)" style="fill: #72b072"/>
   </g>
   <g id="patch_8">
    <path d="M 171.084853 386.264 
L 196.568461 386.264 
L 196.568461 143.247312 
L 171.084853 143.247312 
z
" clip-path="url(#p6264f51e5f)" style="fill: #72b072"/>
   </g>
   <g id="patch_9">
    <path d="M 243.895161 386.264 
L 269.378769 386.264 
L 269.378769 110.979536 
L 243.895161 110.979536 
z
" clip-path="url(#p6264f51e5f)" style="fill: #72b072"/>
   </g>
   <g id="patch_10">
    <path d="M 316.705469 386.264 
L 342.189077 386.264 
L 342.189077 150.656163 
L 316.705469 150.656163 
z
" clip-path="url(#p6264f51e5f)" style="fill: #72b072"/>
   </g>
   <g id="patch_11">
    <path d="M 389.515777 386.264 
L 414.999384 386.264 
L 414.999384 81.491406 
L 389.515777 81.491406 
z
" clip-path="url(#p6264f51e5f)" style="fill: #72b072"/>
   </g>
   <g id="patch_12">
    <path d="M 462.326084 386.264 
L 487.809692 386.264 
L 487.809692 163.918856 
L 462.326084 163.918856 
z
" clip-path="url(#p6264f51e5f)" style="fill: #72b072"/>
   </g>
   <g id="patch_13">
    <path d="M 535.136392 386.264 
L 560.62 386.264 
L 560.62 123.504528 
L 535.136392 123.504528 
z
" clip-path="url(#p6264f51e5f)" style="fill: #72b072"/>
   </g>
   <g id="patch_14">
    <path d="M 607.9467 386.264 
L 633.430308 386.264 
L 633.430308 50.424384 
L 607.9467 50.424384 
z
" clip-path="url(#p6264f51e5f)" style="fill: #72b072"/>
   </g>
   <g id="patch_15">
    <path d="M 680.757008 386.264 
L 706.240616 386.264 
L 706.240616 159.600122 
L 680.757008 159.600122 
z
" clip-path="url(#p6264f51e5f)" style="fill: #72b072"/>
   </g>
   <g id="patch_16">
    <path d="M 753.567316 386.264 
L 779.050923 386.264 
L 779.050923 111.404112 
L 753.567316 111.404112 
z
" clip-path="url(#p6264f51e5f)" style="fill: #72b072"/>
   </g>
   <g id="patch_17">
    <path d="M 826.377623 386.264 
L 851.861231 386.264 
L 851.861231 144.414896 
L 826.377623 144.414896 
z
" clip-path="url(#p6264f51e5f)" style="fill: #72b072"/>
   </g>
   <g id="patch_18">
    <path d="M 899.187931 386.264 
L 924.671539 386.264 
L 924.671539 131.78376 
L 899.187931 131.78376 
z
" clip-path="url(#p6264f51e5f)" style="fill: #72b072"/>
   </g>
   <g id="patch_19">
    <path d="M 971.998239 386.264 
L 997.481847 386.264 
L 997.481847 122.743829 
L 971.998239 122.743829 
z
" clip-path="url(#p6264f51e5f)" style="fill: #72b072"/>
   </g>
   <g id="patch_20">
    <path d="M 123.758153 386.264 
L 149.241761 386.264 
L 149.241761 50.424384 
L 123.758153 50.424384 
z
" clip-path="url(#p6264f51e5f)" style="fill: #297d8e"/>
   </g>
   <g id="patch_21">
    <path d="M 196.568461 386.264 
L 222.052069 386.264 
L 222.052069 132.31448 
L 196.568461 132.31448 
z
" clip-path="url(#p6264f51e5f)" style="fill: #297d8e"/>
   </g>
   <g id="patch_22">
    <path d="M 269.378769 386.264 
L 294.862377 386.264 
L 294.862377 99.569056 
L 269.378769 99.569056 
z
" clip-path="url(#p6264f51e5f)" style="fill: #297d8e"/>
   </g>
   <g id="patch_23">
    <path d="M 342.189077 386.264 
L 367.672684 386.264 
L 367.672684 119.969933 
L 342.189077 119.969933 
z
" clip-path="url(#p6264f51e5f)" style="fill: #297d8e"/>
   </g>
   <g id="patch_24">
    <path d="M 414.999384 386.264 
L 440.482992 386.264 
L 440.482992 64.355784 
L 414.999384 64.355784 
z
" clip-path="url(#p6264f51e5f)" style="fill: #297d8e"/>
   </g>
   <g id="patch_25">
    <path d="M 487.809692 386.264 
L 513.2933 386.264 
L 513.2933 126.396952 
L 487.809692 126.396952 
z
" clip-path="url(#p6264f51e5f)" style="fill: #297d8e"/>
   </g>
   <g id="patch_26">
    <path d="M 560.62 386.264 
L 586.103608 386.264 
L 586.103608 95.323296 
L 560.62 95.323296 
z
" clip-path="url(#p6264f51e5f)" style="fill: #297d8e"/>
   </g>
   <g id="patch_27">
    <path d="M 633.430308 386.264 
L 658.913916 386.264 
L 658.913916 63.98428 
L 633.430308 63.98428 
z
" clip-path="url(#p6264f51e5f)" style="fill: #297d8e"/>
   </g>
   <g id="patch_28">
    <path d="M 706.240616 386.264 
L 731.724223 386.264 
L 731.724223 138.74946 
L 706.240616 138.74946 
z
" clip-path="url(#p6264f51e5f)" style="fill: #297d8e"/>
   </g>
   <g id="patch_29">
    <path d="M 779.050923 386.264 
L 804.534531 386.264 
L 804.534531 123.398384 
L 779.050923 123.398384 
z
" clip-path="url(#p6264f51e5f)" style="fill: #297d8e"/>
   </g>
   <g id="patch_30">
    <path d="M 851.861231 386.264 
L 877.344839 386.264 
L 877.344839 92.31146 
L 851.861231 92.31146 
z
" clip-path="url(#p6264f51e5f)" style="fill: #297d8e"/>
   </g>
   <g id="patch_31">
    <path d="M 924.671539 386.264 
L 950.155147 386.264 
L 950.155147 125.653944 
L 924.671539 125.653944 
z
" clip-path="url(#p6264f51e5f)" style="fill: #297d8e"/>
   </g>
   <g id="patch_32">
    <path d="M 997.481847 386.264 
L 1022.965455 386.264 
L 1022.965455 73.333797 
L 997.481847 73.333797 
z
" clip-path="url(#p6264f51e5f)" style="fill: #297d8e"/>
   </g>
   <g id="LineCollection_1">
    <path d="M 111.016349 90.175312 
L 111.016349 77.911036 
" clip-path="url(#p6264f51e5f)" style="fill: none; stroke: #000000; stroke-width: 1.5"/>
    <path d="M 183.826657 147.44 
L 183.826657 139.106369 
" clip-path="url(#p6264f51e5f)" style="fill: none; stroke: #000000; stroke-width: 1.5"/>
    <path d="M 256.636965 114.802047 
L 256.636965 107.103953 
" clip-path="url(#p6264f51e5f)" style="fill: none; stroke: #000000; stroke-width: 1.5"/>
    <path d="M 329.447273 155.561874 
L 329.447273 146.196258 
" clip-path="url(#p6264f51e5f)" style="fill: none; stroke: #000000; stroke-width: 1.5"/>
    <path d="M 402.257581 84.417 
L 402.257581 78.426498 
" clip-path="url(#p6264f51e5f)" style="fill: none; stroke: #000000; stroke-width: 1.5"/>
    <path d="M 475.067888 172.091944 
L 475.067888 155.93152 
" clip-path="url(#p6264f51e5f)" style="fill: none; stroke: #000000; stroke-width: 1.5"/>
    <path d="M 547.878196 127.592399 
L 547.878196 119.471056 
" clip-path="url(#p6264f51e5f)" style="fill: none; stroke: #000000; stroke-width: 1.5"/>
    <path d="M 620.688504 55.62544 
L 620.688504 45.966336 
" clip-path="url(#p6264f51e5f)" style="fill: none; stroke: #000000; stroke-width: 1.5"/>
    <path d="M 693.498812 163.409199 
L 693.498812 155.836322 
" clip-path="url(#p6264f51e5f)" style="fill: none; stroke: #000000; stroke-width: 1.5"/>
    <path d="M 766.30912 115.651199 
L 766.30912 107.476784 
" clip-path="url(#p6264f51e5f)" style="fill: none; stroke: #000000; stroke-width: 1.5"/>
    <path d="M 839.119427 149.89458 
L 839.119427 139.492468 
" clip-path="url(#p6264f51e5f)" style="fill: none; stroke: #000000; stroke-width: 1.5"/>
    <path d="M 911.929735 138.842336 
L 911.929735 124.906292 
" clip-path="url(#p6264f51e5f)" style="fill: none; stroke: #000000; stroke-width: 1.5"/>
    <path d="M 984.740043 126.892291 
L 984.740043 118.469985 
" clip-path="url(#p6264f51e5f)" style="fill: none; stroke: #000000; stroke-width: 1.5"/>
   </g>
   <g id="LineCollection_2">
    <path d="M 136.499957 55.439688 
L 136.499957 45.780584 
" clip-path="url(#p6264f51e5f)" style="fill: none; stroke: #000000; stroke-width: 1.5"/>
    <path d="M 209.310265 136.349279 
L 209.310265 128.598113 
" clip-path="url(#p6264f51e5f)" style="fill: none; stroke: #000000; stroke-width: 1.5"/>
    <path d="M 282.120573 102.965664 
L 282.120573 95.907088 
" clip-path="url(#p6264f51e5f)" style="fill: none; stroke: #000000; stroke-width: 1.5"/>
    <path d="M 354.93088 124.801342 
L 354.93088 115.660486 
" clip-path="url(#p6264f51e5f)" style="fill: none; stroke: #000000; stroke-width: 1.5"/>
    <path d="M 427.741188 67.096787 
L 427.741188 61.615942 
" clip-path="url(#p6264f51e5f)" style="fill: none; stroke: #000000; stroke-width: 1.5"/>
    <path d="M 500.551496 133.645924 
L 500.551496 118.962228 
" clip-path="url(#p6264f51e5f)" style="fill: none; stroke: #000000; stroke-width: 1.5"/>
    <path d="M 573.361804 98.933519 
L 573.361804 91.925361 
" clip-path="url(#p6264f51e5f)" style="fill: none; stroke: #000000; stroke-width: 1.5"/>
    <path d="M 646.172112 69.55684 
L 646.172112 58.597472 
" clip-path="url(#p6264f51e5f)" style="fill: none; stroke: #000000; stroke-width: 1.5"/>
    <path d="M 718.982419 142.558537 
L 718.982419 135.173734 
" clip-path="url(#p6264f51e5f)" style="fill: none; stroke: #000000; stroke-width: 1.5"/>
    <path d="M 791.792727 127.273967 
L 791.792727 119.152624 
" clip-path="url(#p6264f51e5f)" style="fill: none; stroke: #000000; stroke-width: 1.5"/>
    <path d="M 864.603035 97.326764 
L 864.603035 87.665338 
" clip-path="url(#p6264f51e5f)" style="fill: none; stroke: #000000; stroke-width: 1.5"/>
    <path d="M 937.413343 133.088668 
L 937.413343 118.038112 
" clip-path="url(#p6264f51e5f)" style="fill: none; stroke: #000000; stroke-width: 1.5"/>
    <path d="M 1010.223651 76.863085 
L 1010.223651 69.804509 
" clip-path="url(#p6264f51e5f)" style="fill: none; stroke: #000000; stroke-width: 1.5"/>
   </g>
   <g id="legend_1">
    <g id="patch_33">
     <path d="M 984.573438 52.11625 
L 1062.2 52.11625 
Q 1064.2 52.11625 1064.2 50.11625 
L 1064.2 21.76 
Q 1064.2 19.76 1062.2 19.76 
L 984.573438 19.76 
Q 982.573438 19.76 982.573438 21.76 
L 982.573438 50.11625 
Q 982.573438 52.11625 984.573438 52.11625 
z
" style="fill: #ffffff; opacity: 0.8; stroke: #cccccc; stroke-linejoin: miter"/>
    </g>
    <g id="patch_34">
     <path d="M 986.573438 31.358438 
L 1006.573438 31.358438 
L 1006.573438 24.358438 
L 986.573438 24.358438 
z
" style="fill: #72b072"/>
    </g>
    <g id="text_21">
     <!-- Topo -->
     <g transform="translate(1014.573438 31.358438) scale(0.1 -0.1)">
      <defs>
       <path id="DejaVuSans-54" d="M -19 4666 
L 3928 4666 
L 3928 4134 
L 2272 4134 
L 2272 0 
L 1638 0 
L 1638 4134 
L -19 4134 
L -19 4666 
z
" transform="scale(0.015625)"/>
      </defs>
      <use xlink:href="#DejaVuSans-54"/>
      <use xlink:href="#DejaVuSans-6f" x="44.083984"/>
      <use xlink:href="#DejaVuSans-70" x="105.265625"/>
      <use xlink:href="#DejaVuSans-6f" x="168.742188"/>
     </g>
    </g>
    <g id="patch_35">
     <path d="M 986.573438 46.036563 
L 1006.573438 46.036563 
L 1006.573438 39.036563 
L 986.573438 39.036563 
z
" style="fill: #297d8e"/>
    </g>
    <g id="text_22">
     <!-- Non-Topo -->
     <g transform="translate(1014.573438 46.036563) scale(0.1 -0.1)">
      <defs>
       <path id="DejaVuSans-4e" d="M 628 4666 
L 1478 4666 
L 3547 763 
L 3547 4666 
L 4159 4666 
L 4159 0 
L 3309 0 
L 1241 3903 
L 1241 0 
L 628 0 
L 628 4666 
z
" transform="scale(0.015625)"/>
      </defs>
      <use xlink:href="#DejaVuSans-4e"/>
      <use xlink:href="#DejaVuSans-6f" x="74.804688"/>
      <use xlink:href="#DejaVuSans-6e" x="135.986328"/>
      <use xlink:href="#DejaVuSans-2d" x="199.365234"/>
      <use xlink:href="#DejaVuSans-54" x="226.324219"/>
      <use xlink:href="#DejaVuSans-6f" x="270.408203"/>
      <use xlink:href="#DejaVuSans-70" x="331.589844"/>
      <use xlink:href="#DejaVuSans-6f" x="395.066406"/>
     </g>
    </g>
   </g>
  </g>
 </g>
 <defs>
  <clipPath id="p6264f51e5f">
   <rect x="52.04" y="14.76" width="1017.16" height="371.504"/>
  </clipPath>
 </defs>
</svg>
